<svg width="358" height="378" viewBox="0 0 358 378" fill="none" xmlns="http://www.w3.org/2000/svg">
<path d="M18.455 211.715L1 221V200.842C1 192.302 1.85469 183.784 3.5513 175.414L6.35718 161.571C7.7832 154.536 9.79847 147.634 12.3817 140.936L18.4691 125.154C20.8196 119.06 23.6331 113.155 26.8849 107.491L30.9288 100.447C35.298 92.8357 40.4384 85.6943 46.2688 79.1351L60.6557 62.9498C66.5361 56.3344 73.0867 50.3468 80.2024 45.0831L93.1153 35.5312C101.672 29.2018 110.984 23.9642 120.837 19.9398L132.833 15.0399C138.603 12.6831 144.538 10.7509 150.59 9.25875L167.514 5.08564C174.492 3.36494 181.603 2.23506 188.771 1.708L200.017 0.881094C207.988 0.294986 215.997 0.456758 223.938 1.36429L235.282 2.66078C243.077 3.55171 250.775 5.15755 258.276 7.45802L272.617 11.8558C280.52 14.2796 288.17 17.4633 295.46 21.3623L315.017 31.8232C323.314 36.2609 331.096 41.5998 338.222 47.7432L356.5 63.5L352.83 65.7018C348.657 68.2058 345.042 71.5827 342.251 75.5699C338.197 81.3613 336 88.2918 336 95.361C336 98.7682 336.505 102.156 337.5 105.415L343.972 126.631C344.654 128.865 345 131.187 345 133.523V140.076C345 144.367 342.733 148.339 339.039 150.522C335.855 152.404 331.987 152.73 328.533 151.41L320.912 148.496C318.318 147.504 315.594 146.889 312.825 146.67L304.38 146.004C300.218 145.675 296.052 146.575 292.396 148.592C286.768 151.697 282.841 157.174 281.705 163.501L281.528 164.486C280.542 169.981 281.55 175.647 284.37 180.465L289.901 189.915C291.298 192.301 292.88 194.575 294.63 196.715L307.503 212.448C312.105 218.072 315.338 224.689 316.949 231.775L317.671 234.95C318.872 240.239 318.779 245.739 317.399 250.983L316.382 254.848C315.161 259.487 312.449 263.596 308.662 266.541C303.784 270.335 297.47 271.877 291.384 270.803C286.622 269.963 282.224 267.576 278.945 264.023L276.182 261.031C273.416 258.034 271.209 254.567 269.665 250.793L265.725 241.162C263.911 236.727 262.447 232.158 261.346 227.495L255.97 204.727C254.992 200.586 253.605 196.553 251.829 192.687L248.953 186.426C247.007 182.192 244.173 178.425 240.643 175.382L237.847 172.972C233.753 169.442 228.526 167.5 223.12 167.5C219.43 167.5 215.796 168.405 212.537 170.136L209.681 171.654C204.317 174.504 199.772 178.681 196.482 183.787L191.873 190.938C188.668 195.912 186.66 201.56 186.007 207.441C185.032 216.21 187.118 225.046 191.911 232.454L193.248 234.519C194.744 236.831 195.954 239.316 196.852 241.919L198.446 246.543C199.78 250.412 199.841 254.608 198.62 258.515L197.851 260.978C196.385 265.666 192.638 269.289 187.903 270.596C183.553 271.796 178.893 270.895 175.304 268.16L172.698 266.175C171.239 265.063 169.931 263.766 168.809 262.315L158.5 249L151.946 241.791C149.706 239.327 146.745 237.634 143.485 236.955L142.049 236.656C138.521 235.921 134.848 236.739 131.966 238.901C129.72 240.585 128.105 242.973 127.377 245.684L125.748 251.756C123.968 258.393 124.462 265.436 127.153 271.759L130.401 279.392C132.127 283.449 134.337 287.283 136.983 290.811L154.418 314.058C158.126 319.002 161.237 324.367 163.685 330.042L168.138 340.366C170.02 344.729 170.863 349.47 170.599 354.214L170.358 358.558C170.126 362.727 168.477 366.692 165.684 369.795C162.668 373.147 158.521 375.268 154.038 375.753L148.381 376.364C144.491 376.785 140.557 376.514 136.761 375.565L130.28 373.945C122.626 372.031 115.778 367.733 110.726 361.672C107.606 357.927 105.252 353.606 103.798 348.953L102.458 344.664C101.487 341.56 100.772 338.382 100.318 335.161L96 304.5L85.5 266.5L72 233.5L63.1857 216.291C62.0688 214.11 60.6178 212.118 58.8853 210.385L57.7287 209.229C54.0607 205.561 49.0858 203.5 43.8984 203.5C41.9766 203.5 40.0653 203.783 38.2262 204.341L31.0527 206.514C26.6946 207.835 22.4755 209.577 18.455 211.715Z" stroke="black"/>
</svg>
